@startuml
left to right direction
hide methods
skinparam classAttributeIconSize 0
title class2relational_very_large_out.xmi

package "Pkg1" as Package2Schema_schema_86 {
  class "C\n[AbstractClass2TableWithDiscriminator_tbl_178]" as AbstractClass2TableWithDiscriminator_tbl_178 {
      discrim: discrim
  }
  class "T1\n[AbstractClass2TableWithDiscriminator_tbl_180]" as AbstractClass2TableWithDiscriminator_tbl_180 {
      discrim: discrim
  }
  class "T2\n[AbstractClass2TableWithDiscriminator_tbl_182]" as AbstractClass2TableWithDiscriminator_tbl_182 {
      discrim: discrim
  }
  class "D\n[AbstractClass2TableWithDiscriminator_tbl_184]" as AbstractClass2TableWithDiscriminator_tbl_184 {
      discrim: discrim
  }
  class "C\n[Class2Table_tbl_11]" as Class2Table_tbl_11 {
    + id: int
  }
  class "D\n[Class2Table_tbl_14]" as Class2Table_tbl_14 {
    + id: int
      id: T2
  }
  class "T1\n[Class2Table_tbl_17]" as Class2Table_tbl_17 {
    + id: int
      val: ref
  }
  class "D\n[Class2Table_tbl_2]" as Class2Table_tbl_2 {
    + id: int
      a: varchar
      id: T2
  }
  class "T2\n[Class2Table_tbl_20]" as Class2Table_tbl_20 {
    + id: int
      ref: ref
  }
  class "C\n[Class2Table_tbl_23]" as Class2Table_tbl_23 {
    + id: int
      a: T1
  }
  class "D\n[Class2Table_tbl_26]" as Class2Table_tbl_26 {
    + id: int
      id: T2
      fk: ref
      fk: ref
  }
  class "T2\n[Class2Table_tbl_29]" as Class2Table_tbl_29 {
    + id: int
      ref: ref
      val: varchar
  }
  class "T1\n[Class2Table_tbl_32]" as Class2Table_tbl_32 {
    + id: int
      val: ref
  }
  class "C\n[Class2Table_tbl_35]" as Class2Table_tbl_35 {
    + id: int
      fk: ref
      a: T1
  }
  class "D\n[Class2Table_tbl_38]" as Class2Table_tbl_38 {
    + id: int
      id: T2
  }
  class "T1\n[Class2Table_tbl_41]" as Class2Table_tbl_41 {
    + id: int
      val: ref
  }
  class "T2\n[Class2Table_tbl_44]" as Class2Table_tbl_44 {
    + id: int
      ref: ref
  }
  class "C\n[Class2Table_tbl_47]" as Class2Table_tbl_47 {
    + id: int
  }
  class "T1\n[Class2Table_tbl_5]" as Class2Table_tbl_5 {
    + id: int
      val: ref
      id: varchar
  }
  class "D\n[Class2Table_tbl_50]" as Class2Table_tbl_50 {
    + id: int
      id: T2
  }
  class "T1\n[Class2Table_tbl_53]" as Class2Table_tbl_53 {
    + id: int
      val: ref
  }
  class "C\n[Class2Table_tbl_56]" as Class2Table_tbl_56 {
    + id: int
      ref: varchar
      a: T1
  }
  class "D\n[Class2Table_tbl_59]" as Class2Table_tbl_59 {
    + id: int
      id: T2
      fk: ref
      fk: ref
  }
  class "T2\n[Class2Table_tbl_62]" as Class2Table_tbl_62 {
    + id: int
      ref: ref
  }
  class "T1\n[Class2Table_tbl_65]" as Class2Table_tbl_65 {
    + id: int
  }
  class "T2\n[Class2Table_tbl_68]" as Class2Table_tbl_68 {
    + id: int
      ref: ref
  }
  class "C\n[Class2Table_tbl_71]" as Class2Table_tbl_71 {
    + id: int
      a: T1
  }
  class "D\n[Class2Table_tbl_74]" as Class2Table_tbl_74 {
    + id: int
      id: T2
      fk: ref
      fk: ref
  }
  class "T1\n[Class2Table_tbl_77]" as Class2Table_tbl_77 {
    + id: int
  }
  class "T2\n[Class2Table_tbl_8]" as Class2Table_tbl_8 {
    + id: int
      ref: ref
  }
  class "T2\n[Class2Table_tbl_80]" as Class2Table_tbl_80 {
    + id: int
      ref: ref
  }
  class "C\n[Class2Table_tbl_83]" as Class2Table_tbl_83 {
    + id: int
      fk: ref
      a: T1
  }
  class "A2\n[ManyToManyAssoc2JunctionTable_junctionTbl_156]" as ManyToManyAssoc2JunctionTable_junctionTbl_156 {
    + fk1: ref
    + fk2: ref
  }
  class "A2\n[ManyToManyAssoc2JunctionTable_junctionTbl_162]" as ManyToManyAssoc2JunctionTable_junctionTbl_162 {
    + fk1: ref
    + fk2: ref
  }
  class "A2\n[ManyToManyAssoc2JunctionTable_junctionTbl_168]" as ManyToManyAssoc2JunctionTable_junctionTbl_168 {
    + fk1: ref
    + fk2: ref
  }
  class "a\n[MultiAttribute2Table_attrTbl_123]" as MultiAttribute2Table_attrTbl_123 {
      fk: ref
      val: varchar
  }
  class "a\n[MultiAttribute2Table_attrTbl_126]" as MultiAttribute2Table_attrTbl_126 {
      fk: ref
      val: varchar
  }
  class "val\n[MultiAttribute2Table_attrTbl_129]" as MultiAttribute2Table_attrTbl_129 {
      fk: ref
      val: varchar
  }
  class "val\n[MultiAttribute2Table_attrTbl_132]" as MultiAttribute2Table_attrTbl_132 {
      fk: ref
      val: varchar
  }
}
Class2Table_tbl_17 --> AbstractClass2TableWithDiscriminator_tbl_184 : FK fk
Class2Table_tbl_17 --> Class2Table_tbl_14 : FK fk
Class2Table_tbl_17 --> Class2Table_tbl_2 : FK fk
Class2Table_tbl_17 --> Class2Table_tbl_26 : FK fk
Class2Table_tbl_17 --> Class2Table_tbl_38 : FK fk
Class2Table_tbl_17 --> Class2Table_tbl_50 : FK fk
Class2Table_tbl_17 --> Class2Table_tbl_59 : FK fk
Class2Table_tbl_17 --> Class2Table_tbl_74 : FK fk
Class2Table_tbl_20 --> AbstractClass2TableWithDiscriminator_tbl_180 : FK fk
Class2Table_tbl_20 --> Class2Table_tbl_17 : FK fk
Class2Table_tbl_20 --> Class2Table_tbl_32 : FK fk
Class2Table_tbl_20 --> Class2Table_tbl_41 : FK fk
Class2Table_tbl_20 --> Class2Table_tbl_5 : FK fk
Class2Table_tbl_20 --> Class2Table_tbl_53 : FK fk
Class2Table_tbl_20 --> Class2Table_tbl_65 : FK fk
Class2Table_tbl_20 --> Class2Table_tbl_77 : FK fk
Class2Table_tbl_26 --> AbstractClass2TableWithDiscriminator_tbl_178 : FK fk
Class2Table_tbl_26 --> Class2Table_tbl_11 : FK fk
Class2Table_tbl_26 --> Class2Table_tbl_23 : FK fk
Class2Table_tbl_26 --> Class2Table_tbl_35 : FK fk
Class2Table_tbl_26 --> Class2Table_tbl_47 : FK fk
Class2Table_tbl_26 --> Class2Table_tbl_56 : FK fk
Class2Table_tbl_26 --> Class2Table_tbl_71 : FK fk
Class2Table_tbl_26 --> Class2Table_tbl_83 : FK fk
Class2Table_tbl_26 --> AbstractClass2TableWithDiscriminator_tbl_180 : FK fk
Class2Table_tbl_26 --> Class2Table_tbl_17 : FK fk
Class2Table_tbl_26 --> Class2Table_tbl_32 : FK fk
Class2Table_tbl_26 --> Class2Table_tbl_41 : FK fk
Class2Table_tbl_26 --> Class2Table_tbl_5 : FK fk
Class2Table_tbl_26 --> Class2Table_tbl_53 : FK fk
Class2Table_tbl_26 --> Class2Table_tbl_65 : FK fk
Class2Table_tbl_26 --> Class2Table_tbl_77 : FK fk
Class2Table_tbl_29 --> AbstractClass2TableWithDiscriminator_tbl_180 : FK fk
Class2Table_tbl_29 --> Class2Table_tbl_17 : FK fk
Class2Table_tbl_29 --> Class2Table_tbl_32 : FK fk
Class2Table_tbl_29 --> Class2Table_tbl_41 : FK fk
Class2Table_tbl_29 --> Class2Table_tbl_5 : FK fk
Class2Table_tbl_29 --> Class2Table_tbl_53 : FK fk
Class2Table_tbl_29 --> Class2Table_tbl_65 : FK fk
Class2Table_tbl_29 --> Class2Table_tbl_77 : FK fk
Class2Table_tbl_32 --> AbstractClass2TableWithDiscriminator_tbl_184 : FK fk
Class2Table_tbl_32 --> Class2Table_tbl_14 : FK fk
Class2Table_tbl_32 --> Class2Table_tbl_2 : FK fk
Class2Table_tbl_32 --> Class2Table_tbl_26 : FK fk
Class2Table_tbl_32 --> Class2Table_tbl_38 : FK fk
Class2Table_tbl_32 --> Class2Table_tbl_50 : FK fk
Class2Table_tbl_32 --> Class2Table_tbl_59 : FK fk
Class2Table_tbl_32 --> Class2Table_tbl_74 : FK fk
Class2Table_tbl_35 --> AbstractClass2TableWithDiscriminator_tbl_182 : FK fk
Class2Table_tbl_35 --> Class2Table_tbl_20 : FK fk
Class2Table_tbl_35 --> Class2Table_tbl_29 : FK fk
Class2Table_tbl_35 --> Class2Table_tbl_44 : FK fk
Class2Table_tbl_35 --> Class2Table_tbl_62 : FK fk
Class2Table_tbl_35 --> Class2Table_tbl_68 : FK fk
Class2Table_tbl_35 --> Class2Table_tbl_8 : FK fk
Class2Table_tbl_35 --> Class2Table_tbl_80 : FK fk
Class2Table_tbl_41 --> AbstractClass2TableWithDiscriminator_tbl_184 : FK fk
Class2Table_tbl_41 --> Class2Table_tbl_14 : FK fk
Class2Table_tbl_41 --> Class2Table_tbl_2 : FK fk
Class2Table_tbl_41 --> Class2Table_tbl_26 : FK fk
Class2Table_tbl_41 --> Class2Table_tbl_38 : FK fk
Class2Table_tbl_41 --> Class2Table_tbl_50 : FK fk
Class2Table_tbl_41 --> Class2Table_tbl_59 : FK fk
Class2Table_tbl_41 --> Class2Table_tbl_74 : FK fk
Class2Table_tbl_44 --> AbstractClass2TableWithDiscriminator_tbl_180 : FK fk
Class2Table_tbl_44 --> Class2Table_tbl_17 : FK fk
Class2Table_tbl_44 --> Class2Table_tbl_32 : FK fk
Class2Table_tbl_44 --> Class2Table_tbl_41 : FK fk
Class2Table_tbl_44 --> Class2Table_tbl_5 : FK fk
Class2Table_tbl_44 --> Class2Table_tbl_53 : FK fk
Class2Table_tbl_44 --> Class2Table_tbl_65 : FK fk
Class2Table_tbl_44 --> Class2Table_tbl_77 : FK fk
Class2Table_tbl_5 --> AbstractClass2TableWithDiscriminator_tbl_184 : FK fk
Class2Table_tbl_5 --> Class2Table_tbl_14 : FK fk
Class2Table_tbl_5 --> Class2Table_tbl_2 : FK fk
Class2Table_tbl_5 --> Class2Table_tbl_26 : FK fk
Class2Table_tbl_5 --> Class2Table_tbl_38 : FK fk
Class2Table_tbl_5 --> Class2Table_tbl_50 : FK fk
Class2Table_tbl_5 --> Class2Table_tbl_59 : FK fk
Class2Table_tbl_5 --> Class2Table_tbl_74 : FK fk
Class2Table_tbl_53 --> AbstractClass2TableWithDiscriminator_tbl_184 : FK fk
Class2Table_tbl_53 --> Class2Table_tbl_14 : FK fk
Class2Table_tbl_53 --> Class2Table_tbl_2 : FK fk
Class2Table_tbl_53 --> Class2Table_tbl_26 : FK fk
Class2Table_tbl_53 --> Class2Table_tbl_38 : FK fk
Class2Table_tbl_53 --> Class2Table_tbl_50 : FK fk
Class2Table_tbl_53 --> Class2Table_tbl_59 : FK fk
Class2Table_tbl_53 --> Class2Table_tbl_74 : FK fk
Class2Table_tbl_59 --> AbstractClass2TableWithDiscriminator_tbl_178 : FK fk
Class2Table_tbl_59 --> Class2Table_tbl_11 : FK fk
Class2Table_tbl_59 --> Class2Table_tbl_23 : FK fk
Class2Table_tbl_59 --> Class2Table_tbl_35 : FK fk
Class2Table_tbl_59 --> Class2Table_tbl_47 : FK fk
Class2Table_tbl_59 --> Class2Table_tbl_56 : FK fk
Class2Table_tbl_59 --> Class2Table_tbl_71 : FK fk
Class2Table_tbl_59 --> Class2Table_tbl_83 : FK fk
Class2Table_tbl_59 --> AbstractClass2TableWithDiscriminator_tbl_180 : FK fk
Class2Table_tbl_59 --> Class2Table_tbl_17 : FK fk
Class2Table_tbl_59 --> Class2Table_tbl_32 : FK fk
Class2Table_tbl_59 --> Class2Table_tbl_41 : FK fk
Class2Table_tbl_59 --> Class2Table_tbl_5 : FK fk
Class2Table_tbl_59 --> Class2Table_tbl_53 : FK fk
Class2Table_tbl_59 --> Class2Table_tbl_65 : FK fk
Class2Table_tbl_59 --> Class2Table_tbl_77 : FK fk
Class2Table_tbl_62 --> AbstractClass2TableWithDiscriminator_tbl_180 : FK fk
Class2Table_tbl_62 --> Class2Table_tbl_17 : FK fk
Class2Table_tbl_62 --> Class2Table_tbl_32 : FK fk
Class2Table_tbl_62 --> Class2Table_tbl_41 : FK fk
Class2Table_tbl_62 --> Class2Table_tbl_5 : FK fk
Class2Table_tbl_62 --> Class2Table_tbl_53 : FK fk
Class2Table_tbl_62 --> Class2Table_tbl_65 : FK fk
Class2Table_tbl_62 --> Class2Table_tbl_77 : FK fk
Class2Table_tbl_68 --> AbstractClass2TableWithDiscriminator_tbl_180 : FK fk
Class2Table_tbl_68 --> Class2Table_tbl_17 : FK fk
Class2Table_tbl_68 --> Class2Table_tbl_32 : FK fk
Class2Table_tbl_68 --> Class2Table_tbl_41 : FK fk
Class2Table_tbl_68 --> Class2Table_tbl_5 : FK fk
Class2Table_tbl_68 --> Class2Table_tbl_53 : FK fk
Class2Table_tbl_68 --> Class2Table_tbl_65 : FK fk
Class2Table_tbl_68 --> Class2Table_tbl_77 : FK fk
Class2Table_tbl_74 --> AbstractClass2TableWithDiscriminator_tbl_178 : FK fk
Class2Table_tbl_74 --> Class2Table_tbl_11 : FK fk
Class2Table_tbl_74 --> Class2Table_tbl_23 : FK fk
Class2Table_tbl_74 --> Class2Table_tbl_35 : FK fk
Class2Table_tbl_74 --> Class2Table_tbl_47 : FK fk
Class2Table_tbl_74 --> Class2Table_tbl_56 : FK fk
Class2Table_tbl_74 --> Class2Table_tbl_71 : FK fk
Class2Table_tbl_74 --> Class2Table_tbl_83 : FK fk
Class2Table_tbl_74 --> AbstractClass2TableWithDiscriminator_tbl_180 : FK fk
Class2Table_tbl_74 --> Class2Table_tbl_17 : FK fk
Class2Table_tbl_74 --> Class2Table_tbl_32 : FK fk
Class2Table_tbl_74 --> Class2Table_tbl_41 : FK fk
Class2Table_tbl_74 --> Class2Table_tbl_5 : FK fk
Class2Table_tbl_74 --> Class2Table_tbl_53 : FK fk
Class2Table_tbl_74 --> Class2Table_tbl_65 : FK fk
Class2Table_tbl_74 --> Class2Table_tbl_77 : FK fk
Class2Table_tbl_8 --> AbstractClass2TableWithDiscriminator_tbl_180 : FK fk
Class2Table_tbl_8 --> Class2Table_tbl_17 : FK fk
Class2Table_tbl_8 --> Class2Table_tbl_32 : FK fk
Class2Table_tbl_8 --> Class2Table_tbl_41 : FK fk
Class2Table_tbl_8 --> Class2Table_tbl_5 : FK fk
Class2Table_tbl_8 --> Class2Table_tbl_53 : FK fk
Class2Table_tbl_8 --> Class2Table_tbl_65 : FK fk
Class2Table_tbl_8 --> Class2Table_tbl_77 : FK fk
Class2Table_tbl_80 --> AbstractClass2TableWithDiscriminator_tbl_180 : FK fk
Class2Table_tbl_80 --> Class2Table_tbl_17 : FK fk
Class2Table_tbl_80 --> Class2Table_tbl_32 : FK fk
Class2Table_tbl_80 --> Class2Table_tbl_41 : FK fk
Class2Table_tbl_80 --> Class2Table_tbl_5 : FK fk
Class2Table_tbl_80 --> Class2Table_tbl_53 : FK fk
Class2Table_tbl_80 --> Class2Table_tbl_65 : FK fk
Class2Table_tbl_80 --> Class2Table_tbl_77 : FK fk
Class2Table_tbl_83 --> AbstractClass2TableWithDiscriminator_tbl_182 : FK fk
Class2Table_tbl_83 --> Class2Table_tbl_20 : FK fk
Class2Table_tbl_83 --> Class2Table_tbl_29 : FK fk
Class2Table_tbl_83 --> Class2Table_tbl_44 : FK fk
Class2Table_tbl_83 --> Class2Table_tbl_62 : FK fk
Class2Table_tbl_83 --> Class2Table_tbl_68 : FK fk
Class2Table_tbl_83 --> Class2Table_tbl_8 : FK fk
Class2Table_tbl_83 --> Class2Table_tbl_80 : FK fk
ManyToManyAssoc2JunctionTable_junctionTbl_156 --> AbstractClass2TableWithDiscriminator_tbl_182 : FK fk1
ManyToManyAssoc2JunctionTable_junctionTbl_156 --> Class2Table_tbl_20 : FK fk1
ManyToManyAssoc2JunctionTable_junctionTbl_156 --> Class2Table_tbl_29 : FK fk1
ManyToManyAssoc2JunctionTable_junctionTbl_156 --> Class2Table_tbl_44 : FK fk1
ManyToManyAssoc2JunctionTable_junctionTbl_156 --> Class2Table_tbl_62 : FK fk1
ManyToManyAssoc2JunctionTable_junctionTbl_156 --> Class2Table_tbl_68 : FK fk1
ManyToManyAssoc2JunctionTable_junctionTbl_156 --> Class2Table_tbl_8 : FK fk1
ManyToManyAssoc2JunctionTable_junctionTbl_156 --> Class2Table_tbl_80 : FK fk1
ManyToManyAssoc2JunctionTable_junctionTbl_156 --> AbstractClass2TableWithDiscriminator_tbl_180 : FK fk2
ManyToManyAssoc2JunctionTable_junctionTbl_156 --> Class2Table_tbl_17 : FK fk2
ManyToManyAssoc2JunctionTable_junctionTbl_156 --> Class2Table_tbl_32 : FK fk2
ManyToManyAssoc2JunctionTable_junctionTbl_156 --> Class2Table_tbl_41 : FK fk2
ManyToManyAssoc2JunctionTable_junctionTbl_156 --> Class2Table_tbl_5 : FK fk2
ManyToManyAssoc2JunctionTable_junctionTbl_156 --> Class2Table_tbl_53 : FK fk2
ManyToManyAssoc2JunctionTable_junctionTbl_156 --> Class2Table_tbl_65 : FK fk2
ManyToManyAssoc2JunctionTable_junctionTbl_156 --> Class2Table_tbl_77 : FK fk2
ManyToManyAssoc2JunctionTable_junctionTbl_162 --> AbstractClass2TableWithDiscriminator_tbl_182 : FK fk1
ManyToManyAssoc2JunctionTable_junctionTbl_162 --> Class2Table_tbl_20 : FK fk1
ManyToManyAssoc2JunctionTable_junctionTbl_162 --> Class2Table_tbl_29 : FK fk1
ManyToManyAssoc2JunctionTable_junctionTbl_162 --> Class2Table_tbl_44 : FK fk1
ManyToManyAssoc2JunctionTable_junctionTbl_162 --> Class2Table_tbl_62 : FK fk1
ManyToManyAssoc2JunctionTable_junctionTbl_162 --> Class2Table_tbl_68 : FK fk1
ManyToManyAssoc2JunctionTable_junctionTbl_162 --> Class2Table_tbl_8 : FK fk1
ManyToManyAssoc2JunctionTable_junctionTbl_162 --> Class2Table_tbl_80 : FK fk1
ManyToManyAssoc2JunctionTable_junctionTbl_162 --> AbstractClass2TableWithDiscriminator_tbl_180 : FK fk2
ManyToManyAssoc2JunctionTable_junctionTbl_162 --> Class2Table_tbl_17 : FK fk2
ManyToManyAssoc2JunctionTable_junctionTbl_162 --> Class2Table_tbl_32 : FK fk2
ManyToManyAssoc2JunctionTable_junctionTbl_162 --> Class2Table_tbl_41 : FK fk2
ManyToManyAssoc2JunctionTable_junctionTbl_162 --> Class2Table_tbl_5 : FK fk2
ManyToManyAssoc2JunctionTable_junctionTbl_162 --> Class2Table_tbl_53 : FK fk2
ManyToManyAssoc2JunctionTable_junctionTbl_162 --> Class2Table_tbl_65 : FK fk2
ManyToManyAssoc2JunctionTable_junctionTbl_162 --> Class2Table_tbl_77 : FK fk2
ManyToManyAssoc2JunctionTable_junctionTbl_168 --> AbstractClass2TableWithDiscriminator_tbl_182 : FK fk1
ManyToManyAssoc2JunctionTable_junctionTbl_168 --> Class2Table_tbl_20 : FK fk1
ManyToManyAssoc2JunctionTable_junctionTbl_168 --> Class2Table_tbl_29 : FK fk1
ManyToManyAssoc2JunctionTable_junctionTbl_168 --> Class2Table_tbl_44 : FK fk1
ManyToManyAssoc2JunctionTable_junctionTbl_168 --> Class2Table_tbl_62 : FK fk1
ManyToManyAssoc2JunctionTable_junctionTbl_168 --> Class2Table_tbl_68 : FK fk1
ManyToManyAssoc2JunctionTable_junctionTbl_168 --> Class2Table_tbl_8 : FK fk1
ManyToManyAssoc2JunctionTable_junctionTbl_168 --> Class2Table_tbl_80 : FK fk1
ManyToManyAssoc2JunctionTable_junctionTbl_168 --> AbstractClass2TableWithDiscriminator_tbl_180 : FK fk2
ManyToManyAssoc2JunctionTable_junctionTbl_168 --> Class2Table_tbl_17 : FK fk2
ManyToManyAssoc2JunctionTable_junctionTbl_168 --> Class2Table_tbl_32 : FK fk2
ManyToManyAssoc2JunctionTable_junctionTbl_168 --> Class2Table_tbl_41 : FK fk2
ManyToManyAssoc2JunctionTable_junctionTbl_168 --> Class2Table_tbl_5 : FK fk2
ManyToManyAssoc2JunctionTable_junctionTbl_168 --> Class2Table_tbl_53 : FK fk2
ManyToManyAssoc2JunctionTable_junctionTbl_168 --> Class2Table_tbl_65 : FK fk2
ManyToManyAssoc2JunctionTable_junctionTbl_168 --> Class2Table_tbl_77 : FK fk2
@enduml
